<svg width="16" height="15" viewBox="0 0 16 15" fill="none" xmlns="http://www.w3.org/2000/svg">
<path d="M0.571429 5.63784H15.4286C15.7442 5.63784 16 5.38201 16 5.06641V0.637835C16 0.322228 15.7442 0.0664062 15.4286 0.0664062H0.571429C0.255821 0.0664062 0 0.322228 0 0.637835V5.06641C0 5.38201 0.255821 5.63784 0.571429 5.63784ZM0.571429 14.0664H15.4286C15.7442 14.0664 16 13.8106 16 13.495V9.06641C16 8.7508 15.7442 8.49498 15.4286 8.49498H0.571429C0.255821 8.49498 0 8.7508 0 9.06641V13.495C0 13.8106 0.255821 14.0664 0.571429 14.0664Z" fill="#6D7888"/>
</svg>