<svg width="16" height="15" viewBox="0 0 16 15" fill="none" xmlns="http://www.w3.org/2000/svg">
<path d="M0.571429 2.63783H15.4286C15.7442 2.63783 16 2.38201 16 2.06641V0.637835C16 0.322228 15.7442 0.0664062 15.4286 0.0664062H0.571429C0.255821 0.0664062 0 0.322228 0 0.637835V2.06641C0 2.38201 0.255821 2.63783 0.571429 2.63783ZM0.571429 8.35212H15.4286C15.7442 8.35212 16 8.0963 16 7.78069V6.35212C16 6.03651 15.7442 5.78069 15.4286 5.78069H0.571429C0.255821 5.78069 0 6.03651 0 6.35212V7.78069C0 8.0963 0.255821 8.35212 0.571429 8.35212ZM0.571429 14.0664H15.4286C15.7442 14.0664 16 13.8106 16 13.495V12.0664C16 11.7508 15.7442 11.495 15.4286 11.495H0.571429C0.255821 11.495 0 11.7508 0 12.0664V13.495C0 13.8106 0.255821 14.0664 0.571429 14.0664Z" fill="#6D7888"/>
</svg>